<?xml version="1.0" encoding="utf-8"?>
<!-- Generator: Adobe Illustrator 24.3.0, SVG Export Plug-In . SVG Version: 6.00 Build 0)  -->
<svg version="1.1" id="Layer_1" xmlns="http://www.w3.org/2000/svg" xmlns:xlink="http://www.w3.org/1999/xlink" x="0px" y="0px"
	 viewBox="0 0 357 247.3" style="enable-background:new 0 0 357 247.3;" xml:space="preserve">
<style type="text/css">
	.st0{fill:#FFFFFF;stroke:#465867;stroke-width:1.0774;stroke-miterlimit:10;}
	.st1{fill:none;stroke:#465867;stroke-width:1.0774;stroke-miterlimit:10;}
	.st2{fill:none;stroke:#212A32;stroke-width:1.0774;stroke-miterlimit:10;}
	.st3{fill:none;stroke:#FF7300;stroke-width:1.0774;stroke-miterlimit:10;}
	.st4{fill:#D7E2DE;stroke:#465867;stroke-width:1.6161;stroke-linejoin:round;stroke-miterlimit:10;}
	.st5{fill:#D7E2DE;stroke:#465867;stroke-width:1.6161;stroke-miterlimit:10;}
	.st6{fill-rule:evenodd;clip-rule:evenodd;fill:#D7E2DE;stroke:#465867;stroke-width:1.5542;stroke-miterlimit:10;}
	.st7{fill-rule:evenodd;clip-rule:evenodd;fill:none;stroke:#465867;stroke-width:1.5542;stroke-miterlimit:10;}
	.st8{fill:none;stroke:#FF7300;stroke-width:7.542;stroke-miterlimit:10;}
	.st9{fill:#FF7300;}
	.st10{fill:#FFFFFF;}
</style>
<g>
	<path class="st0" d="M185.5,180.6c-33,0-59.9-26.9-59.9-59.9s26.9-59.9,59.9-59.9s59.9,26.9,59.9,59.9S218.5,180.6,185.5,180.6z"/>
	<g>
		<g>
			<path class="st1" d="M144.1,129.5c0.1,0.6,0.1,1.2,0.3,1.8l3.2,0.3l1.2,2.9l-1.9,2.5c0.7,1,1.5,1.9,2.4,2.8l2.8-1.6l2.7,1.6
				l-0.1,3.2c1.1,0.4,2.3,0.7,3.5,0.8l1.3-2.9l3.1-0.3l1.8,2.6c1.2-0.3,2.3-0.8,3.4-1.4l-0.6-3.1l2.4-2.1l3,1.1c0.7-1,1.4-2,1.9-3.1
				l-2.3-2.1l0.7-3.1l3.1-0.9c0-0.6,0-1.3,0-1.9c-0.1-0.6-0.1-1.2-0.3-1.7l-3.2-0.3l-1.2-2.9l2-2.5c-0.7-1-1.5-1.9-2.4-2.8l-2.8,1.6
				l-2.7-1.6l0.1-3.2c-1.1-0.4-2.3-0.7-3.6-0.8l-1.3,2.9l-3.1,0.3l-1.8-2.6c-1.2,0.3-2.3,0.8-3.4,1.4l0.7,3.1l-2.4,2.1l-3-1.1
				c-0.7,1-1.4,2-1.9,3.1l2.4,2.1l-0.7,3.1l-3.1,0.9C144,128.2,144,128.8,144.1,129.5z"/>
			<circle class="st1" cx="159.8" cy="128.1" r="8.2"/>
		</g>
		<g>
			<path class="st1" d="M166.1,100.1c-0.1,0.8-0.2,1.6-0.3,2.3l3.9,1.5l0.5,4.1l-3.3,2.5c0.5,1.5,1.2,3,2.1,4.3l4-1l2.8,3l-1.2,4
				c1.3,0.9,2.6,1.6,4.1,2.2l2.7-3.2l4.1,0.8l1.3,4c1.6,0,3.2-0.2,4.8-0.6l0.3-4.2l3.7-1.8l3.4,2.4c1.3-1,2.4-2.1,3.5-3.3l-2.2-3.5
				l2-3.6l4.2,0c0.2-0.8,0.4-1.6,0.6-2.4c0.1-0.8,0.2-1.5,0.3-2.3l-3.9-1.5l-0.5-4.1l3.3-2.5c-0.5-1.5-1.2-3-2.1-4.3l-4,1l-2.8-3
				l1.2-4c-1.3-0.9-2.7-1.7-4.2-2.3l-2.7,3.2l-4.1-0.8l-1.3-3.9c-1.6,0-3.2,0.2-4.8,0.6l-0.3,4.2l-3.7,1.8l-3.4-2.4
				c-1.3,1-2.4,2.1-3.5,3.3l2.2,3.5l-2,3.6l-4.2,0C166.5,98.5,166.3,99.3,166.1,100.1z"/>
			<circle class="st1" cx="186.5" cy="103.8" r="10.7"/>
		</g>
		<g>
			<path class="st1" d="M191,134c-0.1,0.7-0.2,1.4-0.3,2.1l3.4,1.4l0.5,3.6l-3,2.2c0.5,1.4,1.1,2.6,1.8,3.8l3.6-0.9l2.5,2.6
				l-1.1,3.5c1.1,0.8,2.3,1.5,3.6,2l2.4-2.8l3.6,0.7l1.2,3.5c1.4,0,2.9-0.2,4.2-0.5l0.2-3.7l3.3-1.6l3,2.1c1.1-0.8,2.2-1.8,3.1-2.9
				l-2-3.1l1.8-3.2l3.7,0c0.2-0.7,0.4-1.4,0.5-2.2c0.1-0.7,0.2-1.4,0.2-2l-3.4-1.4l-0.5-3.6l3-2.2c-0.5-1.4-1.1-2.7-1.8-3.9
				l-3.6,0.9l-2.5-2.7l1.1-3.5c-1.2-0.8-2.4-1.5-3.7-2l-2.4,2.9l-3.6-0.7l-1.2-3.5c-1.4,0-2.9,0.2-4.2,0.6l-0.2,3.7l-3.3,1.6l-3-2.1
				c-1.1,0.9-2.2,1.8-3.1,2.9l2,3.1l-1.7,3.2l-3.7,0C191.3,132.6,191.1,133.3,191,134z"/>
			<circle class="st1" cx="209.1" cy="137.3" r="9.5"/>
		</g>
	</g>
	<line class="st2" x1="85.7" y1="27.2" x2="136.5" y2="69.7"/>
	<path class="st3" d="M186.8,123.7"/>
	<line class="st2" x1="27.2" y1="135.1" x2="112.3" y2="123.8"/>
	<line class="st2" x1="107.4" y1="212.1" x2="140.4" y2="175.5"/>
	<line class="st2" x1="283.3" y1="207.4" x2="238" y2="168.1"/>
	<line class="st2" x1="326.6" y1="134" x2="256.2" y2="122.9"/>
	<line class="st2" x1="228.9" y1="64.2" x2="259.5" y2="28.4"/>
	<g>
		<rect x="252.6" y="3.2" class="st4" width="31.3" height="53"/>
		<line class="st5" x1="280.8" y1="46.9" x2="255.2" y2="46.9"/>
		<path class="st5" d="M268.2,54c-1.1,0-2.1-0.9-2.1-2.1c0-1.2,0.9-2.1,2.1-2.1c1.1,0,2.1,0.9,2.1,2.1C270.3,53,269.4,54,268.2,54z"
			/>
		<line class="st5" x1="280.8" y1="7.1" x2="255.2" y2="7.1"/>
		<rect x="260" y="13.5" class="st5" width="5.5" height="5.5"/>
		<line class="st5" x1="259.5" y1="23.8" x2="276.9" y2="23.8"/>
		<line class="st5" x1="259.5" y1="28.4" x2="276.9" y2="28.4"/>
		<line class="st5" x1="259.5" y1="32.9" x2="276.9" y2="32.9"/>
		<line class="st5" x1="259.5" y1="37.7" x2="276.9" y2="37.7"/>
	</g>
	<g>
		<g>
			<path class="st6" d="M330.9,134.8c7.2,0,15-0.1,22.1,0c2.3,0,3.3-0.9,3.1-3.4c-0.1-2.1-0.1-4.1,0-6.1c0.1-2.5-0.8-3.5-3.1-3.5
				c-5.9,0.1-12.4,0-18.3,0c-8.4,0-17,0-25.4,0c-2.8,0-3.2,0.4-3.2,3.5c0,2,0,3.9,0,5.9c0,3.2,0.4,3.6,3.2,3.6
				C316.5,134.8,323.8,134.8,330.9,134.8z M345.2,129.9c0-1.4,0-3.3,0-4.5c1.3,0,3.4,0,4.5,0c0,1.3,0,3.2,0,4.5
				C348.6,129.9,346.5,129.9,345.2,129.9z"/>
			<line class="st6" x1="341.1" y1="128.1" x2="312.1" y2="128.1"/>
		</g>
		<g>
			<path class="st7" d="M311,107.6c4.4-6.1,11.6-10.1,19.7-10.1c7.8,0,14.7,3.7,19.2,9.4"/>
			<path class="st7" d="M317.4,112.7c2.9-4.3,7.8-7.1,13.4-7.1c5.2,0,9.8,2.5,12.8,6.3"/>
			<path class="st7" d="M322.8,116.3c1.7-2.6,4.7-4.2,8-4.2c3.1,0,5.9,1.5,7.6,3.8"/>
		</g>
		<path class="st7" d="M335.2,118.3c-1-1.2-2.5-2-4.2-2c-2,0-3.7,1.1-4.6,2.7"/>
	</g>
	<g>
		<path class="st5" d="M309.8,192c0-2.9-8.2-5.2-18.4-5.2c-10.1,0-18.4,2.3-18.4,5.2c0,0,0,0,0,0h0v32.5c0,2.9,8.2,5.2,18.4,5.2
			c10.1,0,18.4-2.3,18.4-5.2V192L309.8,192C309.7,192.1,309.8,192.1,309.8,192z"/>
		<path class="st5" d="M309.8,203.2c0,2.9-8.2,5.2-18.4,5.2s-18.4-2.3-18.4-5.2"/>
		<path class="st5" d="M309.8,214.2c0,2.9-8.2,5.2-18.4,5.2s-18.4-2.3-18.4-5.2"/>
		<ellipse class="st5" cx="291.4" cy="192" rx="18.4" ry="5.2"/>
	</g>
	<g>
		<line class="st5" x1="0" y1="159.1" x2="49.2" y2="159.1"/>
		<polyline class="st5" points="36.3,101.9 42.2,101.9 42.2,152.8 7,152.8 7,101.9 12.9,101.9 		"/>
		<g>
			<line class="st5" x1="12.9" y1="114.4" x2="18.2" y2="114.4"/>
			<line class="st5" x1="22" y1="114.4" x2="27.2" y2="114.4"/>
			<line class="st5" x1="31" y1="114.4" x2="36.3" y2="114.4"/>
		</g>
		<g>
			<line class="st5" x1="12.9" y1="120.3" x2="18.2" y2="120.3"/>
			<line class="st5" x1="22" y1="120.3" x2="27.2" y2="120.3"/>
			<line class="st5" x1="31" y1="120.3" x2="36.3" y2="120.3"/>
		</g>
		<g>
			<line class="st5" x1="12.9" y1="126.3" x2="18.2" y2="126.3"/>
			<line class="st5" x1="22" y1="126.3" x2="27.2" y2="126.3"/>
			<line class="st5" x1="31" y1="126.3" x2="36.3" y2="126.3"/>
		</g>
		<rect x="12.9" y="86.3" class="st5" width="23.3" height="21"/>
	</g>
	<g>
		<g>
			<rect x="79.6" y="205" class="st4" width="40.7" height="32.9"/>
			<g>
				<path class="st5" d="M111.2,244.1c0,1.3-5,2.4-11.2,2.4c-6.2,0-11.2-1.1-11.2-2.4c0-1.3,5-2.4,11.2-2.4
					C106.2,241.7,111.2,242.8,111.2,244.1z"/>
			</g>
			<line class="st5" x1="100" y1="237.8" x2="100" y2="244.2"/>
		</g>
	</g>
	<g>
		<g>
			<rect x="72.3" y="7.3" class="st4" width="18.3" height="38.4"/>
			<circle class="st5" cx="81.5" cy="26.5" r="17.5"/>
			<polygon class="st4" points="90.6,45.7 72.3,45.7 74.5,52.5 88.7,52.5 			"/>
			<polygon class="st4" points="90.6,7.5 72.3,7.5 74.5,0.8 88.2,0.8 			"/>
			<rect x="100.1" y="24" class="st5" width="2.4" height="5"/>
			
				<rect x="95.8" y="14.6" transform="matrix(0.7333 -0.6799 0.6799 0.7333 15.1002 70.1894)" class="st5" width="2.4" height="2.4"/>
		</g>
		<g>
			<circle class="st5" cx="72.6" cy="27.2" r="2.7"/>
			<circle class="st5" cx="81.3" cy="27.2" r="2.7"/>
			<circle class="st5" cx="90.1" cy="27.2" r="2.7"/>
		</g>
	</g>
	<circle class="st8" cx="185.5" cy="120.7" r="70.7"/>
	<circle class="st9" cx="185.5" cy="197.7" r="26.9"/>
	<path class="st10" d="M199.1,194.4h-3.3v-6.8c0-5.6-4.5-10.1-10.1-10.1h-0.6c-5.6,0-10.1,4.5-10.1,10.1v6.8h-3.3
		c-0.6,0-1.2,0.5-1.2,1.2v16.9c0,0.6,0.5,1.2,1.2,1.2h27.3c0.6,0,1.2-0.5,1.2-1.2v-16.9C200.3,194.9,199.8,194.4,199.1,194.4z
		 M187.2,207.8c0,0.3-0.2,0.5-0.4,0.5h-2.6c-0.2,0-0.4-0.2-0.4-0.4l0.6-4.1c-0.7-0.4-1.2-1.2-1.1-2.1c0.1-1.1,1-2,2.1-2
		c1.3-0.1,2.3,0.9,2.3,2.2c0,0.8-0.4,1.5-1.1,1.9L187.2,207.8z M192.1,194.4h-13.2v-6.8c0-3.5,2.8-6.3,6.3-6.3h0.6
		c3.5,0,6.3,2.8,6.3,6.3V194.4z"/>
</g>
</svg>
